<svg width="48" height="48" viewBox="0 0 48 48" fill="none" xmlns="http://www.w3.org/2000/svg">
<path d="M21.9354 41.6707L21.935 41.6703C19.6318 39.4745 12.6454 31.5412 12.2264 31.0654C9.81728 28.2414 8.5 24.6727 8.5 21C8.5 12.4544 15.4544 5.5 24 5.5C32.5456 5.5 39.5 12.4544 39.5 21C39.5 24.675 38.1811 28.2447 35.785 31.0514C35.4093 31.4828 28.7579 39.1028 26.0662 41.6701C25.4841 42.2248 24.7432 42.5 24 42.5C23.2567 42.5 22.5162 42.2247 21.9354 41.6707ZM17.5 21C17.5 24.5894 20.4106 27.5 24 27.5C27.5894 27.5 30.5 24.5894 30.5 21C30.5 17.4106 27.5894 14.5 24 14.5C20.4106 14.5 17.5 17.4106 17.5 21Z" stroke="#333333" stroke-width="3"/>
</svg>
