<svg width="48" height="48" viewBox="0 0 48 48" fill="none" xmlns="http://www.w3.org/2000/svg">
<path d="M24 4C14.626 4 7 11.626 7 21C7 25.036 8.449 28.953 11.093 32.048C11.395 32.391 18.52 40.487 20.9 42.756C21.769 43.585 22.884 44 24 44C25.116 44 26.231 43.585 27.101 42.756C29.868 40.117 36.625 32.371 36.921 32.031C39.551 28.953 41 25.036 41 21C41 11.626 33.374 4 24 4ZM24 26C21.239 26 19 23.761 19 21C19 18.239 21.239 16 24 16C26.761 16 29 18.239 29 21C29 23.761 26.761 26 24 26Z" fill="#333333"/>
</svg>
