<svg width="48" height="48" viewBox="0 0 48 48" fill="none" xmlns="http://www.w3.org/2000/svg">
<mask id="path-1-inside-1_1_241" fill="white">
<path d="M36.0712 37.25H11.9287C10.4175 37.25 9.015 36.5675 8.085 35.375C7.155 34.1825 6.8325 32.66 7.19625 31.1937L11.2575 14.9487C12.7237 9.09125 17.9625 5 24 5C30.0375 5 35.2762 9.09125 36.7387 14.9487L40.8 31.1937C41.1675 32.66 40.845 34.1862 39.9112 35.375C38.985 36.5675 37.5825 37.25 36.0712 37.25ZM24 7.25C18.9975 7.25 14.655 10.64 13.4437 15.4925L9.3825 31.7375C9.18375 32.5288 9.36 33.3462 9.85875 33.9912C10.3612 34.6325 11.115 35 11.9287 35H36.0712C36.885 35 37.6387 34.6325 38.1412 33.9912C38.6437 33.35 38.8162 32.5288 38.6175 31.7375L34.5562 15.4925C33.345 10.64 29.0025 7.25 24 7.25Z"/>
</mask>
<path d="M7.19625 31.1937L4.28581 30.4661L4.28451 30.4714L7.19625 31.1937ZM11.2575 14.9487L8.34729 14.2203L8.34707 14.2211L11.2575 14.9487ZM36.7387 14.9487L33.8281 15.6755L33.8283 15.6764L36.7387 14.9487ZM40.8 31.1937L37.8896 31.9214L37.89 31.9231L40.8 31.1937ZM39.9112 35.375L37.552 33.5219L37.547 33.5283L37.542 33.5347L39.9112 35.375ZM13.4437 15.4925L16.3542 16.2201L16.3544 16.219L13.4437 15.4925ZM9.3825 31.7375L12.2921 32.4684L12.2929 32.4651L9.3825 31.7375ZM9.85875 33.9912L7.4855 35.8264L7.49142 35.834L7.4974 35.8417L9.85875 33.9912ZM38.6175 31.7375L35.7071 32.4651L35.7079 32.4684L38.6175 31.7375ZM34.5562 15.4925L31.6456 16.219L31.6458 16.2201L34.5562 15.4925ZM36.0712 34.25H11.9287V40.25H36.0712V34.25ZM11.9287 34.25C11.3391 34.25 10.8104 33.9914 10.4506 33.5301L5.71934 37.2199C7.21955 39.1436 9.49592 40.25 11.9287 40.25V34.25ZM10.4506 33.5301C10.0881 33.0653 9.96571 32.4896 10.108 31.9161L4.28451 30.4714C3.69928 32.8304 4.22185 35.2997 5.71934 37.2199L10.4506 33.5301ZM10.1067 31.9214L14.1679 15.6764L8.34707 14.2211L4.28582 30.4661L10.1067 31.9214ZM14.1677 15.6772C15.3 11.154 19.3396 8 24 8V2C16.5853 2 10.1475 7.02855 8.34729 14.2203L14.1677 15.6772ZM24 8C28.6607 8 32.6992 11.154 33.8281 15.6755L39.6494 14.222C37.8533 7.02846 31.4143 2 24 2V8ZM33.8283 15.6764L37.8896 31.9214L43.7104 30.4661L39.6492 14.2211L33.8283 15.6764ZM37.89 31.9231C38.0331 32.494 37.9101 33.066 37.552 33.5219L42.2705 37.2281C43.7799 35.3065 44.3019 32.826 43.71 30.4644L37.89 31.9231ZM37.542 33.5347C37.1877 33.9909 36.662 34.25 36.0712 34.25V40.25C38.503 40.25 40.7823 39.1441 42.2805 37.2153L37.542 33.5347ZM24 4.25C17.6214 4.25 12.078 8.57652 10.5331 14.766L16.3544 16.219C17.232 12.7035 20.3736 10.25 24 10.25V4.25ZM10.5333 14.7649L6.47207 31.0099L12.2929 32.4651L16.3542 16.2201L10.5333 14.7649ZM6.47288 31.0067C6.04645 32.7043 6.4329 34.4651 7.4855 35.8264L12.232 32.1561C12.2547 32.1855 12.2802 32.233 12.2936 32.2958C12.307 32.3592 12.3042 32.4202 12.2921 32.4684L6.47288 31.0067ZM7.4974 35.8417C8.56734 37.207 10.1911 38 11.9287 38V32C11.9764 32 12.0341 32.0114 12.0914 32.0393C12.1486 32.0672 12.192 32.105 12.2201 32.1408L7.4974 35.8417ZM11.9287 38H36.0712V32H11.9287V38ZM36.0712 38C37.8089 38 39.4327 37.207 40.5026 35.8417L35.7799 32.1408C35.8079 32.105 35.8514 32.0672 35.9086 32.0393C35.9659 32.0114 36.0236 32 36.0712 32V38ZM40.5026 35.8417C41.5805 34.4661 41.9502 32.6909 41.5271 31.0067L35.7079 32.4684C35.6969 32.4246 35.6933 32.366 35.707 32.3013C35.7206 32.2365 35.7484 32.181 35.7799 32.1408L40.5026 35.8417ZM41.5279 31.0099L37.4667 14.7649L31.6458 16.2201L35.7071 32.4651L41.5279 31.0099ZM37.4669 14.766C35.922 8.57652 30.3786 4.25 24 4.25V10.25C27.6264 10.25 30.768 12.7035 31.6456 16.219L37.4669 14.766Z" fill="#333333" mask="url(#path-1-inside-1_1_241)"/>
<mask id="path-3-inside-2_1_241" fill="white">
<path d="M27.3638 40.375C27.1313 40.375 26.8988 40.4425 26.7113 40.585C25.9575 41.1587 25.02 41.5 24 41.5C22.98 41.5 22.0425 41.1587 21.2888 40.585C21.1013 40.4425 20.8725 40.375 20.6363 40.375C19.575 40.375 19.0875 41.7362 19.9313 42.3775C21.0638 43.24 22.4738 43.75 24 43.75C25.5263 43.75 26.9363 43.24 28.0688 42.3775C28.9125 41.7362 28.425 40.375 27.3638 40.375Z"/>
</mask>
<path d="M26.7113 40.585L24.896 38.1965L24.8942 38.1979L26.7113 40.585ZM21.2888 40.585L23.1058 38.1979L23.104 38.1965L21.2888 40.585ZM19.9313 42.3775L21.7489 39.9908L21.7465 39.989L19.9313 42.3775ZM28.0688 42.3775L26.2535 39.989L26.2511 39.9908L28.0688 42.3775ZM27.3638 37.375C26.5674 37.375 25.6742 37.6051 24.896 38.1965L28.5265 42.9735C28.1234 43.2799 27.6951 43.375 27.3638 43.375V37.375ZM24.8942 38.1979C24.6415 38.3902 24.3374 38.5 24 38.5V44.5C25.7027 44.5 27.2735 43.9273 28.5283 42.9721L24.8942 38.1979ZM24 38.5C23.6627 38.5 23.3585 38.3902 23.1058 38.1979L19.4717 42.9721C20.7265 43.9273 22.2974 44.5 24 44.5V38.5ZM23.104 38.1965C22.3297 37.608 21.4418 37.375 20.6363 37.375V43.375C20.3032 43.375 19.8728 43.277 19.4735 42.9735L23.104 38.1965ZM20.6363 37.375C16.8996 37.375 14.8279 42.267 18.116 44.766L21.7465 39.989C22.5055 40.5658 22.6215 41.5049 22.397 42.1382C22.1769 42.7589 21.5342 43.375 20.6363 43.375V37.375ZM18.1136 44.7642C19.7498 46.0103 21.794 46.75 24 46.75V40.75C23.1536 40.75 22.3777 40.4697 21.7489 39.9908L18.1136 44.7642ZM24 46.75C26.2061 46.75 28.2502 46.0103 29.8864 44.7642L26.2511 39.9908C25.6223 40.4697 24.8465 40.75 24 40.75V46.75ZM29.884 44.766C33.1722 42.267 31.1005 37.375 27.3638 37.375V43.375C26.4658 43.375 25.8231 42.7589 25.6031 42.1382C25.3786 41.5049 25.4946 40.5658 26.2535 39.989L29.884 44.766Z" fill="#333333" mask="url(#path-3-inside-2_1_241)"/>
</svg>
