<svg xmlns="http://www.w3.org/2000/svg" xmlns:xlink="http://www.w3.org/1999/xlink" viewBox="0 0 300 300" width="48px" height="48px"><defs><linearGradient id="0XwLeP1IOuWnxe52AosQmd" x1="85.539" x2="153.057" y1="92.208" y2="117.715" gradientUnits="userSpaceOnUse"><stop offset="0" stop-color="#44cfa1"/><stop offset="1" stop-color="#227359"/></linearGradient><linearGradient id="0XwLeP1IOuWnxe52AosQme" x1="141.843" x2="142.125" y1="110.3" y2="151.126" gradientUnits="userSpaceOnUse"><stop offset="0" stop-color="#35a17d" stop-opacity="0"/><stop offset=".965" stop-color="#0c6348"/></linearGradient><linearGradient id="0XwLeP1IOuWnxe52AosQmf" x1="132.496" x2="277.379" y1="79.999" y2="79.999" gradientUnits="userSpaceOnUse"><stop offset="0" stop-color="#40c297"/><stop offset="1" stop-color="#227359"/></linearGradient><linearGradient id="0XwLeP1IOuWnxe52AosQmc" x1="28.514" x2="65.103" y1="50.341" y2="91.997" gradientUnits="userSpaceOnUse"><stop offset="0" stop-color="#b5c345"/><stop offset=".978" stop-color="#7d850e"/></linearGradient><linearGradient id="0XwLeP1IOuWnxe52AosQmg" x1="203.954" x2="205.081" y1="70.686" y2="161.531" gradientUnits="userSpaceOnUse"><stop offset=".623" stop-color="#35a17d" stop-opacity="0"/><stop offset=".88" stop-color="#0c6348"/></linearGradient><linearGradient id="0XwLeP1IOuWnxe52AosQmh" x1="50.25" x2="50.25" y1="121.501" y2="149.282" gradientUnits="userSpaceOnUse"><stop offset=".242" stop-color="#ad7855"/><stop offset=".978" stop-color="#80553b"/></linearGradient><linearGradient id="0XwLeP1IOuWnxe52AosQmi" x1="-6.215" x2="179.479" y1="120.1" y2="210.134" gradientUnits="userSpaceOnUse"><stop offset="0" stop-color="#c2e3ff"/><stop offset="1" stop-color="#74abe0"/></linearGradient><linearGradient id="0XwLeP1IOuWnxe52AosQma" x1="2.945" x2="128.346" y1="178.664" y2="239.464" gradientUnits="userSpaceOnUse"><stop offset="0" stop-color="#c2e3ff"/><stop offset="1" stop-color="#4f8fcc"/></linearGradient><linearGradient id="0XwLeP1IOuWnxe52AosQmb" x1="120.816" x2="31.908" y1="191.383" y2="240.526" gradientUnits="userSpaceOnUse"><stop offset="0" stop-color="#35a17d"/><stop offset="1" stop-color="#18664d"/></linearGradient><linearGradient id="0XwLeP1IOuWnxe52AosQmj" x1="141.893" x2="225.565" y1="138.775" y2="244.585" xlink:href="#0XwLeP1IOuWnxe52AosQma"/><linearGradient id="0XwLeP1IOuWnxe52AosQmk" x1="182.457" x2="246.623" y1="185.837" y2="275.332" xlink:href="#0XwLeP1IOuWnxe52AosQmb"/><linearGradient id="0XwLeP1IOuWnxe52AosQml" x1="50.363" x2="50.269" y1="149.188" y2="127.132" gradientUnits="userSpaceOnUse"><stop offset=".632" stop-color="#8a5d3f" stop-opacity="0"/><stop offset=".978" stop-color="#8a5d3f"/></linearGradient><linearGradient id="0XwLeP1IOuWnxe52AosQmm" x1="26.481" x2="69.263" y1="75.115" y2="125.965" xlink:href="#0XwLeP1IOuWnxe52AosQmc"/></defs><path fill="url(#0XwLeP1IOuWnxe52AosQmd)" d="M202.445,148.721,148.686,58.215a14.455,14.455,0,0,0-25.215,1.161l-41.8,89.564a2.5,2.5,0,0,0,2.263,3.558H200.3A2.5,2.5,0,0,0,202.445,148.721Z"/><path fill="url(#0XwLeP1IOuWnxe52AosQme)" d="M81.672,148.94a2.5,2.5,0,0,0,2.263,3.558H200.3a2.5,2.5,0,0,0,2.147-3.777l-20.181-33.975H97.631Z"/><path fill="url(#0XwLeP1IOuWnxe52AosQmf)" d="M277.1,148.862,208.561,14.474A12.266,12.266,0,0,0,197.1,7.512a12.452,12.452,0,0,0-10.94,8.109L132.678,149.068A2.5,2.5,0,0,0,135,152.5H274.879A2.5,2.5,0,0,0,277.1,148.862Z"/><path fill="url(#0XwLeP1IOuWnxe52AosQmc)" d="M50.25,53.477a21.61,21.61,0,1,0,21.593,21.61A21.625,21.625,0,0,0,50.25,53.477Z"/><path fill="url(#0XwLeP1IOuWnxe52AosQmg)" d="M132.678,149.068A2.5,2.5,0,0,0,135,152.5H274.879a2.5,2.5,0,0,0,2.224-3.636l-14.529-28.487h-118.4Z"/><path fill="url(#0XwLeP1IOuWnxe52AosQmh)" d="M43.36,104.665H57.143a2.5,2.5,0,0,1,2.5,2.5V150a2.5,2.5,0,0,1-2.5,2.5H43.358a2.5,2.5,0,0,1-2.5-2.5V107.165a2.5,2.5,0,0,1,2.5-2.5Z"/><path fill="url(#0XwLeP1IOuWnxe52AosQmi)" d="M288.663,151.5a12.52,12.52,0,0,0-9.158-4H20.5A12.513,12.513,0,0,0,8.036,160.977a142.379,142.379,0,0,0,283.928,0A12.583,12.583,0,0,0,288.663,151.5Z"/><path fill="url(#0XwLeP1IOuWnxe52AosQma)" d="M85.637,210.452a9.995,9.995,0,0,1,.189-13.707c14.349-14.591,5.614-40-15.82-42.149A107.013,107.013,0,0,0,8.623,166.952a142.518,142.518,0,0,0,97.19,118.535,7.5,7.5,0,0,0,1.447-2.892C118.243,238.664,86.941,212.718,85.637,210.452Z"/><path fill="url(#0XwLeP1IOuWnxe52AosQmb)" d="M86.354,218.715c-5.771-6.408-4.039-4.5-4.382-4.866a15.017,15.017,0,0,1,.293-20.612c11.38-11.572,4.517-31.933-12.706-33.661a102.032,102.032,0,0,0-58.644,11.818,2.5,2.5,0,0,0-1.272,2.616A142.962,142.962,0,0,0,99.1,283.109a2.5,2.5,0,0,0,3.316-1.728A67.5,67.5,0,0,0,86.354,218.715Z"/><path fill="url(#0XwLeP1IOuWnxe52AosQmj)" d="M288.164,164.469a7.476,7.476,0,0,0-5.027,1.937c-2.008,1.329-25.435,29.379-64.972,18.8a32.8,32.8,0,0,0-40.913,26.85l-2.641,18.314a17.571,17.571,0,0,1-13.868,14.61,32.649,32.649,0,0,0-25.776,29.181c-1.025,15.136-1.485,15.27-.919,17.442,78.666,8.8,149.171-48.1,157.513-126.307A7.506,7.506,0,0,0,288.164,164.469Z"/><path fill="url(#0XwLeP1IOuWnxe52AosQmk)" d="M289.352,169.77a2.5,2.5,0,0,0-2.864.345c-2.048,1.179-27.1,31.3-69.614,19.92A27.8,27.8,0,0,0,182.2,212.77l-2.652,18.382a22.525,22.525,0,0,1-17.778,18.721,27.618,27.618,0,0,0-21.819,24.67L138.8,289.527a2.5,2.5,0,0,0,2.337,2.687A142.453,142.453,0,0,0,290.631,172.358,2.5,2.5,0,0,0,289.352,169.77Z"/><path fill="url(#0XwLeP1IOuWnxe52AosQml)" d="M57.143,106.181H43.358a2.5,2.5,0,0,0-2.5,2.5v27.968a32.96,32.96,0,0,0,18.781,0V108.681A2.5,2.5,0,0,0,57.143,106.181Z"/><path fill="url(#0XwLeP1IOuWnxe52AosQmm)" d="M50.25,75.234a28.132,28.132,0,1,0,28.109,28.132A28.152,28.152,0,0,0,50.25,75.234Z"/></svg>