<svg xmlns="http://www.w3.org/2000/svg"  viewBox="0 0 512 512" width="64px" height="64px"><rect width="16" height="34.507" x="452.058" y="420.114" fill="#c6ad81" transform="rotate(-51.959 460.064 437.37)"/><rect width="32.571" height="16" x="34.891" y="429.962" fill="#c6ad81" transform="rotate(-38.054 51.177 437.962)"/><rect width="38.459" height="16" x="71.437" y="456" fill="#c6ad81" transform="rotate(-56.31 90.666 463.999)"/><path fill="#8f5521" d="M456,332.687V72H440V88H376a8,8,0,0,0-8,8v32h16V104h56V332.687l-31.4,31.4,10.485,12.142L448,347.314l26.343,26.343,11.314-11.314Z"/><rect width="16" height="38.459" x="413.333" y="444.77" fill="#c6ad81" transform="rotate(-33.69 421.337 464.003)"/><path fill="#70a165" d="M456,424h0a218.508,218.508,0,0,1-154.51,64H210.51A218.508,218.508,0,0,1,56,424h0L256,152Z"/><path fill="#83b277" d="M256,152h0l97.926,190.219A90.54,90.54,0,0,1,345,459.876h0a90.509,90.509,0,0,1-20.142,15.174L301.49,488A218.508,218.508,0,0,0,456,424h0Z"/><path fill="#3f5039" d="M178.36,485.621A218.478,218.478,0,0,0,210.51,488h90.98a218.478,218.478,0,0,0,32.15-2.379A267.54,267.54,0,0,1,256,297.176,267.54,267.54,0,0,1,178.36,485.621Z"/><path fill="#57704c" d="M145.74,362.128,256,152,56,424h0a218.519,218.519,0,0,0,122.36,61.623l48-85.463-.408.172A267.512,267.512,0,0,0,256,277.176V252l-5.124,19.215A267.546,267.546,0,0,1,157.77,412.552h0A39.423,39.423,0,0,1,145.74,362.128Z"/><path fill="#e0c999" d="M176,488l1.636-1.636A267.55,267.55,0,0,0,256,297.176V272l-5.124,19.215A267.554,267.554,0,0,1,136,448h0Z"/><path fill="#a08f6d" d="M176,468l-28.069-28.069Q142.084,444.109,136,448h0l40,40,1.636-1.636A267.552,267.552,0,0,0,256,297.176v-20a267.552,267.552,0,0,1-78.364,189.188Z"/><path fill="#e0c999" d="M336,488l-1.636-1.636A267.55,267.55,0,0,1,256,297.176V272l5.124,19.215A267.554,267.554,0,0,0,376,448h0Z"/><path fill="#a08f6d" d="M364.069,439.931,336,468l-1.636-1.636A267.552,267.552,0,0,1,256,277.176v20a267.552,267.552,0,0,0,78.364,189.188L336,488l40-40h0Q369.907,444.123,364.069,439.931Z"/><rect width="32" height="120" x="96" y="200" fill="#b56b29"/><path fill="#8f5521" d="M128,320H96V200h16v78.111A28.944,28.944,0,0,0,128,304h0Z"/><path fill="#603714" d="M112,320H96V200l6.628,86.164A91.32,91.32,0,0,0,112,320Z"/><polygon fill="#aad678" points="144 136 168 136 112 24 56 136 80 136 56 184 88 184 56 248 168 248 136 184 168 184 144 136"/><path fill="#92b372" d="M114.011,185.557l7.412-14.824A7.417,7.417,0,0,0,114.789,160h-8a7.416,7.416,0,0,1-6.633-10.733l13.267-26.534A7.417,7.417,0,0,0,106.789,112h0a7.416,7.416,0,0,1-6.633-10.733L125.4,50.789,112,24,56,136H80L56,184H88L56,248H168l-12-24H137.769A26.563,26.563,0,0,1,114.011,185.557Z"/><path fill="#708e50" d="M93.4,197.2l5.234-10.468A7.416,7.416,0,0,0,92,176H84a7.416,7.416,0,0,1-6.633-10.733l13.266-26.534A7.416,7.416,0,0,0,84,128h0a7.416,7.416,0,0,1-6.633-10.733L118,36l-6-12L56,136H80L56,184H88L56,248H168l-4-8H119.85A29.573,29.573,0,0,1,93.4,197.2Z"/><path fill="#fcd73d" d="M396.422,199.155a33.884,33.884,0,0,0,0-30.31L392,160H360l-4.422,8.845a33.884,33.884,0,0,0,0,30.31L360,208l-8,32h48l-8-32Z"/><path fill="#f9bf3e" d="M396.422,199.155a33.884,33.884,0,0,0,0-30.31L392,160H376l4.422,8.845a33.884,33.884,0,0,1,0,30.31L376,208l8,32h16l-8-32Z"/><path fill="#393e4f" d="M392,168H360a8,8,0,0,1-8-8V144a24,24,0,0,1,48,0v16A8,8,0,0,1,392,168Zm-24-16h16v-8a8,8,0,0,0-16,0Z"/><polygon fill="#475784" points="400 240 352 240 360 208 392 208 400 240"/><path fill="#393e4f" d="M392,208h0l-2.32,6.959A24.92,24.92,0,0,1,366.038,232H354l-2,8h48Z"/><path fill="#b0c0ea" d="M392,208H360l-2,8h14.686A27.315,27.315,0,0,0,392,208Z"/></svg>