<svg width="48" height="48" viewBox="0 0 48 48" fill="none" xmlns="http://www.w3.org/2000/svg">
<path d="M43.6 18.53C44.39 18.48 45 17.82 45 17.03V13.5C45 11.57 43.43 10 41.5 10H33V12C33 12.83 32.33 13.5 31.5 13.5C30.67 13.5 30 12.83 30 12V10H6.5C4.57 10 3 11.57 3 13.5V17.03C3 17.82 3.61 18.48 4.4 18.53C7.26 18.71 9.5 21.12 9.5 24C9.5 26.88 7.26 29.29 4.4 29.47C3.61 29.52 3 30.18 3 30.97V34.5C3 36.43 4.57 38 6.5 38H30V36C30 35.17 30.67 34.5 31.5 34.5C32.33 34.5 33 35.17 33 36V38H41.5C43.43 38 45 36.43 45 34.5V30.97C45 30.18 44.39 29.52 43.6 29.47C40.74 29.29 38.5 26.88 38.5 24C38.5 21.12 40.74 18.71 43.6 18.53ZM33 30C33 30.83 32.33 31.5 31.5 31.5C30.67 31.5 30 30.83 30 30V27C30 26.17 30.67 25.5 31.5 25.5C32.33 25.5 33 26.17 33 27V30ZM33 21C33 21.83 32.33 22.5 31.5 22.5C30.67 22.5 30 21.83 30 21V18C30 17.17 30.67 16.5 31.5 16.5C32.33 16.5 33 17.17 33 18V21Z" fill="#333333"/>
</svg>
