<svg width="48" height="48" viewBox="0 0 48 48" fill="none" xmlns="http://www.w3.org/2000/svg">
<mask id="path-1-inside-1_1_193" fill="white">
<path fill-rule="evenodd" clip-rule="evenodd" d="M24.5 45C35.8218 45 45 35.8218 45 24.5C45 13.1782 35.8218 4 24.5 4C13.1782 4 4 13.1782 4 24.5C4 35.8218 13.1782 45 24.5 45ZM32.9277 15.1113C33.0682 15.0538 33.2148 15.0192 33.3613 15.0059C33.8008 14.9657 34.2459 15.1198 34.5684 15.4453C34.9964 15.8793 35.1189 16.5308 34.8789 17.0918C34.4839 18.0148 30.9465 26.1755 28.5605 28.5605C26.1745 30.9455 18.0148 34.4829 17.0918 34.8789C16.9008 34.9599 16.699 35 16.5 35C16.113 35 15.7333 34.8504 15.4473 34.5684C15.0123 34.1394 14.8813 33.4907 15.1133 32.9277C15.4823 32.0297 18.8035 24.0755 21.4395 21.4395C24.0745 18.8025 32.0297 15.4813 32.9277 15.1113ZM26.5 25C26.5 24.172 25.828 23.5 25 23.5C24.172 23.5 23.5 24.172 23.5 25C23.5 25.828 24.172 26.5 25 26.5C25.828 26.5 26.5 25.828 26.5 25Z"/>
</mask>
<path fill-rule="evenodd" clip-rule="evenodd" d="M24.5 45C35.8218 45 45 35.8218 45 24.5C45 13.1782 35.8218 4 24.5 4C13.1782 4 4 13.1782 4 24.5C4 35.8218 13.1782 45 24.5 45ZM32.9277 15.1113C33.0682 15.0538 33.2148 15.0192 33.3613 15.0059C33.8008 14.9657 34.2459 15.1198 34.5684 15.4453C34.9964 15.8793 35.1189 16.5308 34.8789 17.0918C34.4839 18.0148 30.9465 26.1755 28.5605 28.5605C26.1745 30.9455 18.0148 34.4829 17.0918 34.8789C16.9008 34.9599 16.699 35 16.5 35C16.113 35 15.7333 34.8504 15.4473 34.5684C15.0123 34.1394 14.8813 33.4907 15.1133 32.9277C15.4823 32.0297 18.8035 24.0755 21.4395 21.4395C24.0745 18.8025 32.0297 15.4813 32.9277 15.1113ZM26.5 25C26.5 24.172 25.828 23.5 25 23.5C24.172 23.5 23.5 24.172 23.5 25C23.5 25.828 24.172 26.5 25 26.5C25.828 26.5 26.5 25.828 26.5 25Z" fill="#333333"/>
<path d="M33.3613 15.0059L33.0886 12.0183L33.0886 12.0183L33.3613 15.0059ZM32.9277 15.1113L31.7914 12.3348L31.7849 12.3376L32.9277 15.1113ZM34.5684 15.4453L36.7044 13.3388L36.6995 13.3338L34.5684 15.4453ZM34.8789 17.0918L37.637 18.2721L37.6371 18.2718L34.8789 17.0918ZM28.5605 28.5605L30.6814 30.6823L30.6814 30.6823L28.5605 28.5605ZM17.0918 34.8789L18.2631 37.6408L18.2746 37.6359L17.0918 34.8789ZM15.4473 34.5684L13.3407 36.7044L13.3409 36.7046L15.4473 34.5684ZM15.1133 32.9277L17.887 34.0707L17.8881 34.068L15.1133 32.9277ZM21.4395 21.4395L23.5608 23.5608L23.5616 23.56L21.4395 21.4395ZM42 24.5C42 34.165 34.165 42 24.5 42V48C37.4787 48 48 37.4787 48 24.5H42ZM24.5 7C34.165 7 42 14.835 42 24.5H48C48 11.5213 37.4787 1 24.5 1V7ZM7 24.5C7 14.835 14.835 7 24.5 7V1C11.5213 1 1 11.5213 1 24.5H7ZM24.5 42C14.835 42 7 34.165 7 24.5H1C1 37.4787 11.5213 48 24.5 48V42ZM33.0886 12.0183C32.657 12.0577 32.2184 12.1601 31.7914 12.3348L34.064 17.8878C33.9181 17.9475 33.7726 17.9808 33.6341 17.9934L33.0886 12.0183ZM36.6995 13.3338C35.7324 12.3578 34.3997 11.8986 33.0886 12.0183L33.6341 17.9934C33.202 18.0329 32.7593 17.8818 32.4372 17.5568L36.6995 13.3338ZM37.6371 18.2718C38.3548 16.5942 37.9907 14.6431 36.7044 13.3388L32.4323 17.5518C32.0021 17.1155 31.883 16.4674 32.1207 15.9118L37.6371 18.2718ZM30.6814 30.6823C31.5468 29.8173 32.3682 28.6 33.0668 27.4431C33.7955 26.2366 34.5125 24.8886 35.1474 23.624C36.4186 21.0922 37.4288 18.7585 37.637 18.2721L32.1209 15.9115C31.934 16.3481 30.9781 18.5562 29.7853 20.9318C29.1883 22.1209 28.5488 23.318 27.9308 24.3412C27.2829 25.4142 26.7673 26.1113 26.4397 26.4388L30.6814 30.6823ZM18.2746 37.6359C18.7586 37.4282 21.092 36.4178 23.6237 35.1466C24.8882 34.5117 26.236 33.7949 27.4424 33.0664C28.5993 32.3679 29.8164 31.547 30.6814 30.6823L26.4397 26.4388C26.1117 26.7666 25.4141 27.2822 24.3411 27.9301C23.3177 28.5481 22.1205 29.1875 20.9314 29.7846C18.5559 30.9773 16.348 31.9336 15.909 32.1219L18.2746 37.6359ZM16.5 38C17.1008 38 17.701 37.8792 18.2631 37.6408L15.9205 32.117C16.1006 32.0406 16.2972 32 16.5 32V38ZM13.3409 36.7046C14.1996 37.5512 15.3407 38 16.5 38V32C16.8853 32 17.2669 32.1495 17.5536 32.4322L13.3409 36.7046ZM12.3396 31.7847C11.6438 33.4732 12.0366 35.4182 13.3407 36.7044L17.5538 32.4324C17.9879 32.8605 18.1188 33.5082 17.887 34.0707L12.3396 31.7847ZM19.3181 19.3181C17.6022 21.034 15.9199 24.1217 14.7389 26.5019C13.4885 29.0219 12.5357 31.3075 12.3384 31.7875L17.8881 34.068C18.0599 33.65 18.9522 31.5095 20.1136 29.1688C21.3444 26.6884 22.6407 24.4809 23.5608 23.5608L19.3181 19.3181ZM31.7849 12.3376C31.3076 12.5342 29.0217 13.4872 26.5014 14.738C24.1212 15.9192 21.033 17.602 19.3173 19.3189L23.5616 23.56C24.4809 22.6399 26.6878 21.3437 29.1686 20.1125C31.5091 18.951 33.6499 18.0584 34.0706 17.8851L31.7849 12.3376ZM25 26.5C24.1711 26.5 23.5 25.8289 23.5 25H29.5C29.5 22.5151 27.4849 20.5 25 20.5V26.5ZM26.5 25C26.5 25.8289 25.8289 26.5 25 26.5V20.5C22.5151 20.5 20.5 22.5152 20.5 25H26.5ZM25 23.5C25.8289 23.5 26.5 24.1711 26.5 25H20.5C20.5 27.4849 22.5151 29.5 25 29.5V23.5ZM23.5 25C23.5 24.1711 24.1711 23.5 25 23.5V29.5C27.4849 29.5 29.5 27.4849 29.5 25H23.5Z" fill="#333333" mask="url(#path-1-inside-1_1_193)"/>
</svg>
