<svg width="48" height="48" viewBox="0 0 48 48" fill="none" xmlns="http://www.w3.org/2000/svg">
<path d="M24 2.5C17.6665 2.5 12.5 7.66649 12.5 14C12.5 20.3335 17.6665 25.5 24 25.5C30.3335 25.5 35.5 20.3335 35.5 14C35.5 7.66649 30.3335 2.5 24 2.5ZM12.5 26.5C9.20407 26.5 6.5 29.2041 6.5 32.5V33.6992C6.5 37.3187 8.78802 40.3704 11.9025 42.3565C15.0314 44.3519 19.2158 45.5 24 45.5C28.7842 45.5 32.9686 44.3519 36.0975 42.3565C39.212 40.3704 41.5 37.3187 41.5 33.6992V32.5C41.5 29.2041 38.7959 26.5 35.5 26.5H12.5Z" stroke="#333333" stroke-width="3"/>
</svg>
