<svg width="48" height="48" viewBox="0 0 48 48" fill="none" xmlns="http://www.w3.org/2000/svg">
<g clip-path="url(#clip0_1_206)">
<path d="M44.6942 21.027L44.6947 21.027C46.2867 20.9262 47.5 19.5997 47.5 18.03V14.5C47.5 11.7416 45.2584 9.5 42.5 9.5H34H32.5H31H7.5C4.74157 9.5 2.5 11.7416 2.5 14.5V18.03C2.5 19.5997 3.71331 20.9262 5.30525 21.027L5.30578 21.027C7.36447 21.1566 9 22.9007 9 25C9 27.0993 7.36447 28.8434 5.30578 28.973L5.30525 28.973C3.71331 29.0738 2.5 30.4003 2.5 31.97V35.5C2.5 38.2584 4.74157 40.5 7.5 40.5H31H32.5H34H42.5C45.2584 40.5 47.5 38.2584 47.5 35.5V31.97C47.5 30.4003 46.2867 29.0738 44.6947 28.973L44.6942 28.973C42.6355 28.8434 41 27.0993 41 25C41 22.9007 42.6355 21.1566 44.6942 21.027Z" stroke="#333333" stroke-width="3"/>
</g>
<defs>
<clipPath id="clip0_1_206">
<rect width="48" height="48" fill="white"/>
</clipPath>
</defs>
</svg>
