<svg width="48" height="48" viewBox="0 0 48 48" fill="none" xmlns="http://www.w3.org/2000/svg">
<path d="M15.733 7.0044C13.3825 6.93913 11.0691 7.60132 9.10905 8.90045C7.14902 10.1996 5.63797 12.0723 4.78242 14.2626C3.92687 16.4529 3.76857 18.854 4.32914 21.1377C4.88971 23.4214 6.1418 25.4762 7.9143 27.0215L23.5872 40.6292C23.701 40.7281 23.8468 40.7827 23.9976 40.7827C24.1484 40.7827 24.2941 40.7281 24.4079 40.6292L40.0808 27.0215C41.966 25.3809 43.2604 23.1668 43.765 20.7192C44.2696 18.2716 43.9566 15.726 42.874 13.4736C42.145 11.9702 41.096 10.6445 39.8005 9.58936C38.505 8.53426 36.9944 7.77535 35.3745 7.36585C33.7547 6.95635 32.0649 6.90618 30.4236 7.21885C28.7823 7.53153 27.2293 8.19948 25.8735 9.17587L23.9976 10.5266L22.1217 9.17587C20.2596 7.82487 18.0327 7.06798 15.733 7.0044ZM32.2951 8.26966C34.3846 8.21506 36.4402 8.80592 38.1818 9.96176C39.9235 11.1176 41.2664 12.7822 42.0278 14.7289C42.7892 16.6756 42.932 18.8096 42.4367 20.8404C41.9415 22.8711 40.8322 24.6998 39.2601 26.0774L23.9976 39.3285L8.73501 26.0774C6.77685 24.3524 5.55695 21.9406 5.32784 19.3411C5.09874 16.7416 5.87798 14.1535 7.50424 12.1126C9.13051 10.0717 11.4793 8.73434 14.0643 8.37727C16.6493 8.02021 19.2727 8.67082 21.3913 10.1944L23.6324 11.8078C23.7388 11.8843 23.8665 11.9255 23.9976 11.9255C24.1286 11.9255 24.2564 11.8843 24.3627 11.8078L26.6038 10.1944C28.2637 8.9941 30.2474 8.3232 32.2951 8.26966Z" fill="#333333"/>
<path d="M29.5 14.7289C29.5 14.7289 35.1919 12.2 37 17M15.733 7.0044C13.3825 6.93913 11.0691 7.60132 9.10905 8.90045C7.14902 10.1996 5.63797 12.0723 4.78242 14.2626C3.92687 16.4529 3.76857 18.854 4.32914 21.1377C4.88971 23.4214 6.1418 25.4762 7.9143 27.0215L23.5872 40.6292C23.701 40.7281 23.8468 40.7827 23.9976 40.7827C24.1484 40.7827 24.2941 40.7281 24.4079 40.6292L40.0808 27.0215C41.966 25.3809 43.2604 23.1668 43.765 20.7192C44.2696 18.2716 43.9566 15.726 42.874 13.4736C42.145 11.9702 41.096 10.6445 39.8005 9.58936C38.505 8.53426 36.9944 7.77535 35.3745 7.36585C33.7547 6.95635 32.0649 6.90618 30.4236 7.21885C28.7823 7.53153 27.2293 8.19948 25.8735 9.17587L23.9976 10.5266L22.1217 9.17587C20.2596 7.82487 18.0327 7.06798 15.733 7.0044ZM32.2951 8.26966C34.3846 8.21506 36.4402 8.80592 38.1818 9.96176C39.9235 11.1176 41.2664 12.7822 42.0278 14.7289C42.7892 16.6756 42.932 18.8096 42.4367 20.8404C41.9415 22.8711 40.8322 24.6998 39.2601 26.0774L23.9976 39.3285L8.73501 26.0774C6.77685 24.3524 5.55695 21.9406 5.32784 19.3411C5.09874 16.7416 5.87798 14.1535 7.50424 12.1126C9.13051 10.0717 11.4793 8.73434 14.0643 8.37727C16.6493 8.02021 19.2727 8.67082 21.3913 10.1944L23.6324 11.8078C23.7388 11.8843 23.8665 11.9255 23.9976 11.9255C24.1286 11.9255 24.2564 11.8843 24.3627 11.8078L26.6038 10.1944C28.2637 8.9941 30.2474 8.3232 32.2951 8.26966Z" stroke="#333333" stroke-width="2" stroke-linecap="round"/>
</svg>
