<svg width="48" height="48" viewBox="0 0 48 48" fill="none" xmlns="http://www.w3.org/2000/svg">
<path d="M44 26H8.828L15.414 32.586C16.195 33.367 16.195 34.633 15.414 35.414C15.023 35.805 14.512 36 14 36C13.488 36 12.977 35.805 12.586 35.414L2.586 25.414C2.211 25.04 2 24.531 2 24C2 23.469 2.211 22.961 2.586 22.586L12.586 12.586C13.367 11.805 14.633 11.805 15.414 12.586C16.195 13.367 16.195 14.633 15.414 15.414L8.828 22H44C45.104 22 46 22.896 46 24C46 25.104 45.104 26 44 26Z" fill="#333333"/>
</svg>
