<svg width="48" height="48" viewBox="0 0 48 48" fill="none" xmlns="http://www.w3.org/2000/svg">
<path d="M24 4C23.6022 4 23.2206 4.15804 22.9393 4.43934C22.658 4.72064 22.5 5.10218 22.5 5.5C22.5 5.89782 22.658 6.27936 22.9393 6.56066C23.2206 6.84196 23.6022 7 24 7C24.3978 7 24.7794 6.84196 25.0607 6.56066C25.342 6.27936 25.5 5.89782 25.5 5.5C25.5 5.10218 25.342 4.72064 25.0607 4.43934C24.7794 4.15804 24.3978 4 24 4V4ZM29.5039 4.82422C29.1407 4.81765 28.7875 4.94309 28.5097 5.17725C28.232 5.41142 28.0487 5.7384 27.9938 6.0975C27.939 6.45659 28.0162 6.8234 28.2113 7.12982C28.4064 7.43624 28.7061 7.66147 29.0547 7.76367C34.3752 9.41842 38.5816 13.6248 40.2363 18.9453C40.2948 19.1335 40.3898 19.3082 40.5158 19.4597C40.6418 19.6111 40.7964 19.7363 40.9708 19.828C41.1452 19.9196 41.3359 19.9761 41.5321 19.9941C41.7283 20.012 41.9261 19.9912 42.1143 19.9327C42.3024 19.8742 42.4772 19.7793 42.6286 19.6532C42.7801 19.5272 42.9052 19.3726 42.9969 19.1982C43.0886 19.0238 43.145 18.833 43.163 18.6368C43.1809 18.4406 43.1601 18.2428 43.1016 18.0547C41.1523 11.7872 36.2128 6.84769 29.9453 4.89844C29.8027 4.85176 29.6539 4.82675 29.5039 4.82422V4.82422ZM18.4512 4.82617C18.3164 4.83232 18.183 4.85663 18.0547 4.89844C11.7872 6.84769 6.84769 11.7872 4.89844 18.0547C4.83993 18.2428 4.81906 18.4407 4.83701 18.6369C4.85496 18.8331 4.91138 19.0238 5.00306 19.1982C5.09474 19.3726 5.21987 19.5273 5.37131 19.6533C5.52275 19.7793 5.69754 19.8743 5.88569 19.9328C6.07384 19.9913 6.27166 20.0121 6.46787 19.9942C6.66408 19.9762 6.85482 19.9197 7.02921 19.828C7.2036 19.7363 7.35822 19.6112 7.48424 19.4597C7.61026 19.3083 7.70521 19.1335 7.76367 18.9453C9.41842 13.6248 13.6248 9.41842 18.9453 7.76367C19.2972 7.66001 19.5988 7.43103 19.7933 7.12002C19.9878 6.80902 20.0616 6.43754 20.0007 6.07582C19.9399 5.71411 19.7486 5.38722 19.4631 5.15695C19.1776 4.92669 18.8176 4.80902 18.4512 4.82617V4.82617ZM32.3613 14.0059C32.2148 14.0192 32.0682 14.0538 31.9277 14.1113C31.0297 14.4813 23.0745 17.8025 20.4395 20.4395C17.8035 23.0755 14.4823 31.0297 14.1133 31.9277C13.8813 32.4907 14.0123 33.1394 14.4473 33.5684C14.7333 33.8504 15.113 34 15.5 34C15.699 34 15.9008 33.9599 16.0918 33.8789C17.0148 33.4829 25.1745 29.9455 27.5605 27.5605C29.9465 25.1755 33.4839 17.0148 33.8789 16.0918C34.1189 15.5308 33.9964 14.8793 33.5684 14.4453C33.2459 14.1198 32.8008 13.9657 32.3613 14.0059ZM5.5 22.5C5.10218 22.5 4.72064 22.658 4.43934 22.9393C4.15804 23.2206 4 23.6022 4 24C4 24.3978 4.15804 24.7794 4.43934 25.0607C4.72064 25.342 5.10218 25.5 5.5 25.5C5.89782 25.5 6.27936 25.342 6.56066 25.0607C6.84196 24.7794 7 24.3978 7 24C7 23.6022 6.84196 23.2206 6.56066 22.9393C6.27936 22.658 5.89782 22.5 5.5 22.5ZM24 22.5C24.828 22.5 25.5 23.172 25.5 24C25.5 24.828 24.828 25.5 24 25.5C23.172 25.5 22.5 24.828 22.5 24C22.5 23.172 23.172 22.5 24 22.5ZM42.5 22.5C42.1022 22.5 41.7206 22.658 41.4393 22.9393C41.158 23.2206 41 23.6022 41 24C41 24.3978 41.158 24.7794 41.4393 25.0607C41.7206 25.342 42.1022 25.5 42.5 25.5C42.8978 25.5 43.2794 25.342 43.5607 25.0607C43.842 24.7794 44 24.3978 44 24C44 23.6022 43.842 23.2206 43.5607 22.9393C43.2794 22.658 42.8978 22.5 42.5 22.5ZM6.30078 27.9805C6.06598 27.9842 5.83534 28.043 5.62742 28.1522C5.4195 28.2614 5.24011 28.4178 5.10369 28.6089C4.96727 28.8001 4.87762 29.0206 4.84197 29.2527C4.80633 29.4848 4.82567 29.722 4.89844 29.9453C6.84769 36.2128 11.7872 41.1523 18.0547 43.1016C18.2428 43.1601 18.4406 43.1809 18.6368 43.163C18.833 43.145 19.0238 43.0886 19.1982 42.9969C19.3726 42.9052 19.5272 42.7801 19.6532 42.6286C19.7793 42.4772 19.8742 42.3024 19.9327 42.1143C19.9912 41.9261 20.012 41.7283 19.9941 41.5321C19.9761 41.3359 19.9196 41.1452 19.828 40.9708C19.7363 40.7964 19.6111 40.6418 19.4597 40.5158C19.3082 40.3898 19.1335 40.2948 18.9453 40.2363C13.6248 38.5816 9.41842 34.3752 7.76367 29.0547C7.67066 28.7404 7.47728 28.4652 7.2131 28.2713C6.94893 28.0773 6.62849 27.9751 6.30078 27.9805V27.9805ZM41.6543 27.9805C41.3343 27.9848 41.024 28.0915 40.7689 28.2847C40.5138 28.478 40.3272 28.7478 40.2363 29.0547C38.5816 34.3752 34.3752 38.5816 29.0547 40.2363C28.8665 40.2948 28.6918 40.3898 28.5403 40.5158C28.3889 40.6418 28.2637 40.7964 28.172 40.9708C28.0804 41.1452 28.0239 41.3359 28.0059 41.5321C27.988 41.7283 28.0088 41.9261 28.0673 42.1143C28.1258 42.3024 28.2207 42.4772 28.3468 42.6286C28.4728 42.7801 28.6274 42.9052 28.8018 42.9969C28.9762 43.0886 29.167 43.145 29.3632 43.163C29.5594 43.1809 29.7572 43.1601 29.9453 43.1016C36.2128 41.1523 41.1523 36.2128 43.1016 29.9453C43.1755 29.7184 43.1943 29.4772 43.1563 29.2416C43.1183 29.006 43.0246 28.7829 42.8831 28.5908C42.7416 28.3987 42.5563 28.2431 42.3426 28.1369C42.1289 28.0308 41.8929 27.9771 41.6543 27.9805V27.9805ZM24 41C23.6022 41 23.2206 41.158 22.9393 41.4393C22.658 41.7206 22.5 42.1022 22.5 42.5C22.5 42.8978 22.658 43.2794 22.9393 43.5607C23.2206 43.842 23.6022 44 24 44C24.3978 44 24.7794 43.842 25.0607 43.5607C25.342 43.2794 25.5 42.8978 25.5 42.5C25.5 42.1022 25.342 41.7206 25.0607 41.4393C24.7794 41.158 24.3978 41 24 41Z" fill="#333333"/>
</svg>
