<svg width="48" height="48" viewBox="0 0 48 48" fill="none" xmlns="http://www.w3.org/2000/svg">
<path d="M22.1446 3.1413L22.1426 3.14283L7.93074 14.3417C7.9307 14.3418 7.93065 14.3418 7.93061 14.3418C5.76458 16.0483 4.5 18.6545 4.5 21.413V40.5C4.5 42.7094 6.29057 44.5 8.5 44.5H17.5C19.7094 44.5 21.5 42.7094 21.5 40.5V31.5C21.5 31.2234 21.7234 31 22 31H26C26.2766 31 26.5 31.2234 26.5 31.5V40.5C26.5 42.7094 28.2906 44.5 30.5 44.5H39.5C41.7094 44.5 43.5 42.7094 43.5 40.5V21.411C43.5 18.6536 42.2365 16.0483 40.0703 14.3418C40.0703 14.3418 40.0703 14.3417 40.0703 14.3417L25.8563 3.14277L25.8555 3.14212C24.7668 2.28557 23.2329 2.28663 22.1446 3.1413Z" stroke="#333333" stroke-width="3"/>
</svg>
