<svg xmlns="http://www.w3.org/2000/svg"  viewBox="0 0 100 100" width="100px" height="100px"><path d="M32.3,97c-3.6,0-6.5-2.9-6.5-6.5c0-4.1,2.3-7.8,6-9.6v-3.2c-0.2-0.2-0.4-0.5-0.6-0.7c0,0-0.1,0-0.1,0	c-2.2,1.5-4.9,2.3-7.7,2.3c-4.9,0-9.2-2.6-11.6-6.7C6.1,71,2,65.7,2,59.3c0-3.8,1.5-7.3,4.2-9.9c0-0.2,0-0.3,0-0.5	c0-0.2,0-0.4,0-0.6C3.6,45.7,2,42.1,2,38.5c0-4.9,2.4-9.1,6.4-11.5c1.4-5.9,6.2-10.3,12.2-10.6c2.4-3.5,6.2-5.8,10.4-6.2	c2.8-2.8,6.2-4.2,10.1-4.2c5,0,8.1,1.8,11,6c1.6,0.3,4.5,1.5,6.1,2.9l4.4-6.3c1.2-1.7,3.2-2.7,5.3-2.7s4.1,1,5.3,2.7l14,20	c1.7,2.4,1.6,5.5-0.2,7.8c-0.1,0.2-0.4,0.4-0.6,0.7l7.1,11.9c1.2,2.1,1.2,4.7,0,6.7c-0.3,0.4-0.8,1.2-1.7,2.1l7.3,13.2	c1.5,2.6,1.1,5.9-1.1,8c-0.8,0.8-6.8,6.8-20,9v2.6c0,3.6-2.9,6.5-6.5,6.5L32.3,97z" opacity=".35"/><path fill="#f2f2f2" d="M30.3,95c-3.6,0-6.5-2.9-6.5-6.5c0-4.1,2.3-7.8,6-9.6v-3.2c-0.2-0.2-0.4-0.5-0.6-0.7c0,0-0.1,0-0.1,0	c-2.2,1.5-4.9,2.3-7.7,2.3c-4.9,0-9.2-2.6-11.6-6.7C4.1,69,0,63.7,0,57.3c0-3.8,1.5-7.3,4.2-9.9c0-0.2,0-0.3,0-0.5	c0-0.2,0-0.4,0-0.6C1.6,43.7,0,40.1,0,36.5c0-4.9,2.4-9.2,6.4-11.5c1.4-5.9,6.2-10.3,12.2-10.6C21,10.8,24.8,8.6,29,8.1	c2.8-2.8,6.2-4.2,10.1-4.2c5,0,9.3,2.3,12.1,6.5c1.6,0.3,3.4,1,5,2.4l4.4-6.3c1.2-1.7,3.2-2.7,5.3-2.7s4.1,1,5.3,2.7l14,20	c1.7,2.4,1.6,5.5-0.2,7.8c-0.1,0.2-0.4,0.4-0.6,0.7l7.1,11.9c1.2,2.1,1.2,4.7,0,6.7c-0.3,0.4-0.8,1.2-1.7,2.1l7.3,13.2	c1.5,2.6,1.1,5.9-1.1,8c-0.8,0.8-6.8,6.8-20,9v2.6c0,3.6-2.9,6.5-6.5,6.5L30.3,95z"/><path fill="#739f4d" d="M82.1,53.7c3.8-1.7,4.9-3.5,4.9-3.5L76.6,32.8c3.3-1.2,4.4-2.6,4.4-2.6l-14-20l-7.7,10.9l0,0	c-0.9-0.2-1.6-0.2-2.4,0l-1.2,0.4l-0.6-1.1c-1.3-2.3-3.7-3.8-6.4-3.8c-0.2,0-0.3,0-0.5,0l-1,0.1l-0.4-0.9c-1.5-3.3-3.6-5.4-7.2-5.4	c-2.9,0-5.4,1.3-7.1,3.6L32,14.7l-0.8-0.1c-0.2,0-0.5,0-0.7,0c-3.5,0-6.4,2.2-7.5,5.5l-0.5,1.3l-1.3-0.3c-0.6-0.2-1.2-0.2-1.8-0.2	c-4,0-7,3.2-7,7.2l0,1.1l-1.1,0.3c-3.1,0.9-5.2,3.8-5.2,7c0,2.6,1.5,5.1,3.8,6.4l1.1,0.6l-0.4,1.2c-0.2,0.7-0.4,1.5-0.4,2.3	c0,0.7,0.1,1.5,0.4,2.2l0.4,1.2l-1.1,0.6C7.5,52.1,6,54.6,6,57.3c0,4,3.2,7.3,7.2,7.3l1.1,0l0.3,1.1c0.9,3.1,3.5,5.2,6.7,5.2	c2.1,0,4.1-0.9,5.5-2.5l0.8-0.9l1,0.5c1,0.5,1.8,0.7,2.9,0.7c0.2,0,0.3,0,0.5,0l1-0.1l0.4,0.9c0.6,1.2,1.4,2.3,2.5,3.2l0.3,0.4v7.9	c0,2.1-2.3,2.8-3.4,3.4l-0.1,0l-0.1,0c-1.5,0.7-2.5,2.2-2.5,3.8h24c0-1.8-1.2-3.4-2.9-3.9c-2.1-0.7-3.3-1.4-3.3-3.4v-5.7	c3.7,1.9,7.4,4.1,15.5,4.6v8.4h7v-8.4c15.4-1,22.5-7.9,22.5-7.9L82.1,53.7z"/><path fill="#96c362" d="M58.3,20.7c-1.4,0-2.7,0.4-3.8,1c-1.3-2.4-3.9-4-6.8-4c-0.6,0-1.1,0.1-1.6,0.2c-0.8-3.5-3.7-6.1-7.4-6.1	c-3,0-5.3,1.7-6.7,4.2c-0.7-0.2-1.3-0.3-2.1-0.3c-4.1,0-7.2,2.8-8.1,6.7c-1-0.6-2.2-0.9-3.4-0.9c-3.7,0-6.4,3-6.4,6.7	c0,0.4,0,0.7,0.1,1.1c0,0-0.1,0-0.1,0c-3.7,0-6.7,3-6.7,6.7c0,3.2,2.2,5.8,5.2,6.5c0.2,0.4,0.5,0.8,0.8,1.2c1.2-2.1,3.5-3.5,6.1-3.5	c2.2,0,3.8,1,5.1,2.5c1.2-1.6,3.2-2.7,5.4-2.7c1.2,0,2,0.3,3,0.8c0,0,0-0.1,0-0.1c0-2.5-1.8-4.5-4.3-4.5c-0.2,0-0.4,0-0.5,0	c-0.1,0-0.2,0-0.2,0c-0.5,0.1-1,0.3-1.4,0.5c-0.5-0.9-1.3-1.7-2.3-2.1c0.3-4.2,3.5-7.4,7.7-7.4c1.3,0,2.5,0.3,3.6,0.9	c1.4-1.8,3.4-2.9,5.9-2.9c2.7,0,4.9,1.4,6.3,3.6c0.9-0.3,2.3-0.7,3.3-0.7c2,0,3.3,0.6,5.1,1.9c1.2-0.8,2.3-0.9,3.8-0.9	c3,0,5.6,1.7,6.9,4.1c0.8-1.2,1.3-2.7,1.3-4.3C66.2,24.2,62.7,20.7,58.3,20.7z"/><path fill="#407845" d="M78.1,46.5c0-4.3-3.3-7.9-7.4-7.9c-4,0-7.2,3.4-7.4,7.6c0,0,0,0,0,0c-2.9,0-5.4,1.6-6.7,3.9c-1-0.7-2.2-1-3.4-1	c-2.8,0-5.5,1.7-6.3,4.2c-1.5-1.3-2.8-1.9-4.9-1.9c-3,0-5.4,1.6-6.9,3.9c-1.2-0.8-2.6-1.3-4.2-1.3c-1.6,0-2.7,0.5-3.9,1.3	c-0.7-2-3-3.8-5.6-3.8c-1.1,0-3.2,0.6-4.5,2.2c-1.3-1.5-3.2-2.2-4.7-2.2c-2,0-5.7,0.9-6.2,5.5c-0.4,3.9,3.2,7.1,7.1,7.1	c0.2,0,0.4,0,0.5,0c0.7,3.3,3.4,5.7,6.9,5.7c2.4,0,4.5-1.2,5.8-2.9c1.3,1.2,2.8,2,4.7,2c0.5,0,1.1-0.1,1.6-0.2	c0.9,2,2.3,3.5,4.3,4.5c1.4,0.9,3.1,1.4,4.9,1.4c4.3,0,7.7-2.9,8.9-6.9c0.4,0.1,0.9,0.1,1.3,0.1c3.1,0,5.9-1.4,7.8-3.5	c1.5,2.1,4,3.5,6.8,3.5c4.6,0,8.3-3.7,8.3-8.3c0-2-0.7-3.8-1.8-5.2C75.9,52.9,78.1,50,78.1,46.5z"/><path fill="#d47f56" d="M61.9,71.5h8v17h-8V71.5z"/><path fill="#d47f56" d="M51.8,84.6c-0.8-0.3-3.3-0.4-3.3-3.4v-6.1l2.4-1.5l-2.4-1.4c-4,2-9.3,2.5-12.8-0.9l0,9.8c0,2.1-2.2,2.8-3.4,3.5	c-1.5,0.6-2.6,2.1-2.6,3.8h4h4.1h8.6h5.8h2.5C54.7,86.6,53.5,85.1,51.8,84.6z"/><path fill="#96c362" d="M81.1,53.5C84.9,51.8,86,50,86,50L75.9,32.4c3.3-1.2,4.4-2.6,4.4-2.6L66,9.9L58.3,21l1.5,0.5l-5.6,8.1	c0,0,1.1,0.9,2.9,1.5c0.9,0.3,1,1.4,0.6,2.2L47.8,50c0,0,1.3,1.4,3.8,2.4c0.8,0.3,1,1.2,0.6,2l-9.9,17c0,0,3.1,2.5,6.9,4.1	c0.1,2.5,9.3,2.7,13.4,3.2c2.3,0.3,4.5,0.2,6.8,0C87.1,77.1,91,70.8,91,70.8L81.1,53.5z"/><path fill="#40396e" d="M80.3,52.4c-2.8,1.2-7.3,2.3-14.3,2.3c-7,0-11.1-0.9-14.4-2.3c-0.9-0.4-2.4-1-3.8-2.4L57,34.6	c2.2,0.6,5.2,1.1,9,1.1c4.9,0,8.2-0.7,10.6-1.6L75,31.5c-2,0.7-4.9,1.2-9,1.2c-4,0-8.3-0.7-11.8-3l5.7-8.2L57.3,20l-6.5,9.3	c-0.3,0.5-0.4,1.2,0,1.8c0.2,0.3,1.2,1.4,3.4,2.5l-9.5,15.9c-0.3,0.4-0.4,0.9,0,1.5c0.2,0.4,1.2,1.9,4.1,3.4l-9.5,16.5	c-0.4,0.6-0.3,1.4,0.2,1.9c0.7,0.7,4.9,3.3,9.6,5.7l0.2-3.1c-4.2-1.8-6.9-4.1-6.9-4.1l9.2-15.8c3.2,1.2,7.9,2.1,14.5,2.1	c7.7,0,12.7-1.2,15.9-2.7L80.3,52.4z" opacity=".35"/><path fill="#40396e" d="M69.5,90h-7c-0.8,0-1.5-0.7-1.5-1.5v-7c-5.4-0.4-8-1.5-11-2.3v2c0,0.8,0.1,1.2,2.3,1.9c2.3,0.7,3.9,2.9,3.9,5.4	c0,0.8-0.7,1.5-1.5,1.5H30.3c-0.8,0-1.5-0.7-1.5-1.5c0-2.2,1.3-4.3,3.4-5.2c0.2-0.1,0.5-0.3,0.7-0.4c1.3-0.7,1.9-1.1,1.9-1.7v-7.4	c-1.1-1-2-2.2-2.6-3.5l0,0c-1.4,0.1-2.7-0.1-4.2-0.9l0,0c-1.7,1.9-4.1,3-6.6,3c-3.8,0-7-2.5-8.2-6.3c-4.8,0-8.2-4-8.2-8.8	c0-3.2,1.8-6.2,4.6-7.7v0c-0.3-0.9-0.4-1.8-0.4-2.7c0-0.9,0.1-1.8,0.4-2.7v0l0,0C6.8,42.6,5,39.6,5,36.5c0-3.8,2.3-7,6-8.1	c0-4.9,3.5-9,8.3-9c0.7,0,1.5,0.1,2.2,0.3c1.5-4.2,5.4-6.9,9.8-6.5h0c2.1-2.7,4.5-4.2,7.8-4.2c4.1,0,7.3,2.4,9.1,6.3	c3.5-0.2,5.7,1.6,7.3,4.6c0.7-0.2,1.4-0.3,2.1-0.2l7.1-10.2c0.6-0.8,1.9-0.8,2.5,0l14,20c0.4,0.5,0.4,1.3-0.1,1.8	c-0.1,0.1-1,1.3-3.4,2.4l9.5,15.9c0.3,0.5,0.3,1.1,0,1.6c-0.1,0.2-1.1,1.7-4.1,3.3l10.1,17.1c0.4,0.6,0.2,1.4-0.2,1.8	c-0.3,0.3-7.2,6.9-22,8.2v7C71,89.3,70.3,90,69.5,90z M64,87h4v-6.9c0-0.8,0.6-1.4,1.4-1.5c11.6-0.8,18.4-5,20.7-6.7L79.8,54.5	c-0.2-0.4-0.3-0.8-0.1-1.2c0.1-0.4,0.4-0.7,0.8-0.9c1.9-0.9,3.1-1.7,3.7-2.3l-9.8-16.5c-0.2-0.4-0.3-0.9-0.1-1.3	c0.2-0.4,0.5-0.8,0.9-0.9c1.4-0.5,2.3-1,2.9-1.4L66,12.8L59.6,22c-0.4,0.5-1,0.7-1.6,0.6c-0.5-0.1-1.1-0.1-1.5,0L55.2,23	c-0.7,0.2-1.4-0.1-1.8-0.7l-0.6-1.1c-1.1-2-2.2-3.2-4.5-3l-1,0.1c-0.6,0-1.2-0.3-1.5-0.9l-0.4-0.9c-1.3-2.8-3.4-4.5-6.4-4.5	c-2.4,0-3.9,1.1-5.5,3l-0.5,0.6c-0.3,0.4-0.8,0.6-1.3,0.6L31,16.1c-3-0.3-5.7,1.5-6.7,4.5l-0.5,1.3c-0.3,0.7-1,1.1-1.8,1l-1.3-0.3	c-0.5-0.1-1-0.2-1.5-0.2c-3.1,0-5.3,2.8-5.3,6l0,1.1c0,0.7-0.4,1.2-1.1,1.4l-1.1,0.3C9.4,31.9,8,33.9,8,36.5c0,2.1,1.2,4,3.1,5.1	l1.1,0.6c0.6,0.3,0.9,1.1,0.7,1.8l-0.4,1.2c-0.2,0.6-0.3,1.2-0.3,1.8c0,0.6,0.1,1.2,0.3,1.8l0.4,1.2c0.2,0.7-0.1,1.4-0.7,1.8	L11,52.2c-1.9,1-3,3-3,5.1c0,3.2,2.1,5.8,5.2,5.8l1.1,0c0.7,0,1.2,0.4,1.4,1.1l0.3,1.1c0.8,2.5,2.8,4.1,5.3,4.1	c1.7,0,3.2-0.7,4.3-1.9l0.8-0.9c0.4-0.5,1.2-0.7,1.8-0.4l1,0.5c1,0.5,1.7,0.6,2.6,0.6l1-0.1c0.6-0.1,1.2,0.3,1.5,0.9l0.4,0.9	c0.5,1,1.2,1.9,2.1,2.7c0.1,0.1,0.2,0.2,0.3,0.3l0.3,0.4c0.2,0.2,0.2,0.5,0.2,0.8v7.9c0,2.6-2.3,3.8-3.5,4.4	c-0.2,0.1-0.4,0.2-0.6,0.3c-0.1,0-0.2,0.1-0.2,0.1c-0.5,0.2-0.9,0.6-1.2,1h20.5c-0.3-0.5-0.8-0.8-1.4-1c-1.9-0.7-4.4-1.6-4.4-4.8	v-4.4c0-0.5,0.3-1,0.7-1.3c0.4-0.3,1-0.2,1.5,0c3.7,1.5,5.9,2.4,13.4,3.2c0.8,0.1,1.4,0.7,1.4,1.5V87z"/></svg>