<svg xmlns="http://www.w3.org/2000/svg"  viewBox="0 0 100 100" width="100px" height="100px"><path d="M46.5,100C19.214,100,7,87.193,7,74.5c0-3.108,0.844-5.662,1.957-7.729 C7.395,64.722,6.5,62.182,6.5,59.5c0-2.962,1.104-5.783,3.013-7.946C9.504,51.37,9.5,51.185,9.5,51 c0-5.123,3.438-9.53,8.126-10.989c2.028-2.782,5.303-4.511,8.874-4.511c1.749,0,3.441,0.413,4.965,1.191 c0.669-0.126,1.351-0.191,2.035-0.191c1.26,0,2.491,0.219,3.646,0.628c0.084-0.387,0.204-0.769,0.36-1.142l10.062-24 C48.584,9.564,50.937,8,53.562,8c2.648,0.006,5,1.583,6.006,4.015l3.893,9.402c1.083-3.519,3.968-6.255,7.574-7.125 C72.975,11.658,76.094,10,79.5,10c3.564,0,6.5,3,8.737,4.684c3.541,1.347,6.145,4.546,6.667,8.391C96.846,25.014,98,27.684,98,30.5 c0,2.271-0.727,4.427-2.032,6.196C95.989,36.964,96,37.232,96,37.5c0,4.563-2.926,8.456-7,9.9v2.275 c6.557,4.297,10,11.088,10,19.824c0,9.163-3.969,21.301-22.88,27.093C64.998,100,52.504,100,46.5,100z" opacity=".35"/><path fill="#f2f2f2" d="M44.5,98C17.214,98,5,85.193,5,72.5c0-3.108,0.844-5.662,1.957-7.729 C5.395,62.722,4.5,60.182,4.5,57.5c0-2.962,1.104-5.783,3.013-7.946C7.504,49.37,7.5,49.185,7.5,49 c0-5.123,3.438-9.53,8.126-10.989c2.028-2.782,5.303-4.511,8.874-4.511c1.749,0,3.441,0.413,4.965,1.191 c0.669-0.126,1.351-0.191,2.035-0.191c1.26,0,2.491,0.219,3.646,0.628c0.084-0.387,0.204-0.769,0.36-1.142l10.062-24 C46.584,7.564,48.937,6,51.562,6c2.648,0.006,5,1.583,6.006,4.015l3.893,9.402c1.083-3.519,3.968-6.255,7.574-7.125 C70.975,9.658,74.094,8,77.5,8c3.564,0,6.824,1.824,8.737,4.684c3.541,1.347,6.145,4.546,6.667,8.391 C94.846,23.014,96,25.684,96,28.5c0,2.271-0.727,4.427-2.032,6.196C93.989,34.964,94,35.232,94,35.5c0,4.563-2.926,8.456-7,9.9 v2.275c6.557,4.297,10,11.088,10,19.824c0,9.163-3.969,21.301-22.88,27.093C62.998,98,50.504,98,44.5,98z"/><rect width="7" height="14" x="48" y="34" fill="#d47f56"/><polygon fill="#96c362" points="61,35 42,35 51,13"/><rect width="7" height="14" x="74" y="40" fill="#d47f56"/><path fill="#96c362" d="M44.5,90C22.74,90,13,81.21,13,72.5c0-3.846,2.394-6.179,5.425-9.134 c1.741-1.697,3.714-3.62,5.323-6.034C27.411,51.838,31.969,45,44.5,45c4.244,0,7.915,1.196,11.801,2.461 c3.123,1.018,6.353,2.069,10.013,2.527l1.278,0.155C78.424,51.432,89,53.834,89,67.5C89,82.64,74.444,90,44.5,90z"/><path fill="#70bfff" d="M44.5,86.5c-19.238,0-28-7.257-28-14c0-2.166,1.198-3.538,4.368-6.627 c1.865-1.817,3.978-3.877,5.792-6.599C30.191,53.977,33.843,48.5,44.5,48.5c3.688,0,6.945,1.061,10.717,2.29 c3.28,1.068,6.671,2.173,10.663,2.672l1.299,0.157C79.33,55.064,85.5,57.608,85.5,67.5C85.5,73,78,76,65,79 C57.144,80.813,54.448,86.5,44.5,86.5z"/><path fill="#96c362" d="M31.5,41c-1.212,0-2.307,0.485-3.117,1.264C27.606,40.917,26.167,40,24.5,40 c-2.352,0-4.261,1.811-4.461,4.111C19.704,44.04,19.357,44,19,44c-2.761,0-5,2.239-5,5c0,1.21,0.448,2.305,1.163,3.17 C12.773,52.768,11,54.924,11,57.5c0,3.038,2.462,5.5,5.5,5.5c0.951,0,0.571,2.126,1.5,2c1.889-0.257,4.847-3.104,5-5 c0.174,0.02,1.821-2,2-2c2.33,0,1.723-1.777,1.954-4.046c2.12-0.216,3.789-1.888,4.001-4.009C31.136,49.967,31.313,50,31.5,50 c2.485,0,4.5-2.015,4.5-4.5S33.985,41,31.5,41z"/><path fill="#96c362" d="M77.5,42c-1.378,0-2.5-1.122-2.5-2.5c0-0.116,0.022-0.228,0.039-0.339 c0.086-0.575-0.166-1.161-0.65-1.483c-0.256-0.171-0.552-0.259-0.848-0.259c-0.262,0-0.524,0.069-0.758,0.21 C72.376,37.875,71.945,38,71.5,38c-1.378,0-2.5-1.122-2.5-2.5c0-0.727,0.332-1.421,0.91-1.905c0.455-0.38,0.643-0.993,0.479-1.563 c-0.163-0.57-0.647-0.991-1.234-1.073C67.926,30.787,67,29.73,67,28.5c0-1.051,0.675-1.993,1.681-2.345 c0.439-0.154,0.782-0.503,0.928-0.945c0.146-0.442,0.079-0.927-0.182-1.312C69.148,23.485,69,23.001,69,22.5 c0-1.378,1.122-2.5,2.5-2.5c0.445,0,0.876,0.125,1.283,0.371c0.239,0.145,0.508,0.216,0.776,0.216c0.29,0,0.58-0.084,0.831-0.251 c0.484-0.322,0.738-0.895,0.652-1.47C75.022,18.726,75,18.616,75,18.5c0-1.378,1.122-2.5,2.5-2.5c1.356,0,2.463,1.085,2.499,2.433 c-0.006,0.052-0.01,0.103-0.013,0.154c-0.019,0.475,0.189,0.931,0.561,1.229c0.269,0.216,0.601,0.33,0.938,0.33 c0.128,0,0.256-0.016,0.383-0.05C82.117,20.031,82.318,20,82.5,20c1.378,0,2.5,1.122,2.5,2.5c0,0.439-0.123,0.867-0.365,1.272 c-0.263,0.439-0.284,0.982-0.055,1.44s0.675,0.768,1.184,0.822C87.038,26.17,88,27.23,88,28.5c0,1.23-0.926,2.287-2.155,2.458 c-0.587,0.082-1.071,0.502-1.234,1.073c-0.164,0.57,0.024,1.183,0.479,1.563C85.668,34.079,86,34.773,86,35.5 c0,1.378-1.122,2.5-2.5,2.5c-0.445,0-0.876-0.125-1.283-0.371c-0.239-0.145-0.508-0.216-0.776-0.216 c-0.29,0-0.58,0.084-0.832,0.251c-0.484,0.322-0.738,0.895-0.652,1.47C79.978,39.272,80,39.384,80,39.5 C80,40.878,78.878,42,77.5,42z"/><path fill="none" stroke="#40396e" stroke-linecap="round" stroke-linejoin="round" stroke-miterlimit="10" stroke-width="3" d="M80.5,51.533V42.12c0.615-0.703,1-1.613,1-2.62c0-0.201-0.031-0.394-0.059-0.587c0.603,0.365,1.303,0.587,2.059,0.587 c2.209,0,4-1.791,4-4c0-1.233-0.57-2.322-1.447-3.056C87.998,32.173,89.5,30.52,89.5,28.5c0-2.065-1.57-3.744-3.578-3.957 c0.359-0.6,0.578-1.293,0.578-2.043c0-2.209-1.791-4-4-4c-0.353,0-0.689,0.06-1.015,0.146c0.002-0.05,0.015-0.096,0.015-0.146 c0-2.209-1.791-4-4-4s-4,1.791-4,4c0,0.201,0.031,0.394,0.059,0.587C72.956,18.722,72.256,18.5,71.5,18.5c-2.209,0-4,1.791-4,4 c0,0.83,0.253,1.6,0.685,2.239c-1.56,0.546-2.685,2.015-2.685,3.761c0,2.02,1.502,3.673,3.447,3.944 C68.07,33.178,67.5,34.267,67.5,35.5c0,2.209,1.791,4,4,4c0.756,0,1.456-0.222,2.059-0.587C73.531,39.106,73.5,39.299,73.5,39.5 c0,1.008,0.385,1.917,1,2.62v7.556c-2.941-0.62-5.779-0.899-8-1.177c-4.381-0.548-8.162-1.993-12-3.19V36.5h7l-9.938-24L41.5,36.5 h7v7.33c-1.288-0.204-2.613-0.33-4-0.33c-3.353,0-6.165,0.472-8.574,1.266C35.574,42.632,33.734,41,31.5,41 c-1.212,0-2.307,0.485-3.117,1.264C27.606,40.917,26.167,40,24.5,40c-2.352,0-4.261,1.811-4.461,4.111 C19.704,44.04,19.357,44,19,44c-2.761,0-5,2.239-5,5c0,1.21,0.448,2.305,1.163,3.17C12.773,52.768,11,54.924,11,57.5 c0,3.038,2.462,5.5,5.5,5.5c0.059,0,0.114-0.015,0.173-0.017C13.867,65.743,11.5,68.365,11.5,72.5c0,10,11,19,33,19 c20,0,46-3,46-24C90.5,58.44,85.956,53.926,80.5,51.533z"/></svg>