<svg width="48" height="48" viewBox="0 0 48 48" fill="none" xmlns="http://www.w3.org/2000/svg">
<path d="M4 26H39.172L32.586 32.586C31.805 33.367 31.805 34.633 32.586 35.414C32.977 35.805 33.488 36 34 36C34.512 36 35.023 35.805 35.414 35.414L45.414 25.414C45.789 25.04 46 24.531 46 24C46 23.469 45.789 22.961 45.414 22.586L35.414 12.586C34.633 11.805 33.367 11.805 32.586 12.586C31.805 13.367 31.805 14.633 32.586 15.414L39.172 22H4C2.896 22 2 22.896 2 24C2 25.104 2.896 26 4 26Z" fill="#333333"/>
</svg>
